<svg xmlns="http://www.w3.org/2000/svg" viewBox="0 0 466.66 466.66"><g id="Camada_2" data-name="Camada 2"><g id="Layer_1" data-name="Layer 1"><path d="M457.33,77.65a9.33,9.33,0,1,0,0-18.66H407.68V9.33a9.34,9.34,0,0,0-18.67,0V59H77.65V9.33A9.33,9.33,0,0,0,59,9.33V59H9.33a9.34,9.34,0,0,0,0,18.67H59V389H9.33a9.34,9.34,0,0,0,0,18.67H59v49.65a9.34,9.34,0,0,0,18.67,0V407.68H389v49.65a9.34,9.34,0,0,0,18.67,0V407.68h49.65a9.33,9.33,0,0,0,0-18.66H407.68V77.66ZM389,389H77.65V77.65H389Z"/><path d="M245.39,294.14A12.2,12.2,0,1,1,233.19,282a12.2,12.2,0,0,1,12.2,12.19"/><path d="M232.62,166.79h1.15c6.42,0,11.62,6.42,11.62,11.62V248a11.62,11.62,0,0,1-11.62,11.62h-1.15c-6.42,0-11.62-6.42-11.62-11.62v-69.6A11.62,11.62,0,0,1,232.62,166.79Z"/></g></g></svg>