<svg xmlns="http://www.w3.org/2000/svg" viewBox="0 0 466.66 466.66"><defs><style>.cls-1{stroke:#000;stroke-miterlimit:10;stroke-width:5px;}</style></defs><g id="Camada_2" data-name="Camada 2"><g id="Layer_1" data-name="Layer 1"><path d="M457.33,77.65a9.33,9.33,0,1,0,0-18.66H407.68V9.33a9.34,9.34,0,0,0-18.67,0V59H77.65V9.33A9.33,9.33,0,0,0,59,9.33V59H9.33a9.34,9.34,0,0,0,0,18.67H59V389H9.33a9.34,9.34,0,0,0,0,18.67H59v49.65a9.34,9.34,0,0,0,18.67,0V407.68H389v49.65a9.34,9.34,0,0,0,18.67,0V407.68h49.65a9.33,9.33,0,0,0,0-18.66H407.68V77.66ZM389,389H77.65V77.65H389Z"/><path d="M110.81,106.33a4.38,4.38,0,0,0-4.36,4.36v65.82a4.37,4.37,0,0,0,4.36,4.39h65.82a4.38,4.38,0,0,0,4.36-4.39V110.69a4.38,4.38,0,0,0-4.36-4.36Zm89.62,0a4.37,4.37,0,0,0-4.39,4.36v65.82a4.37,4.37,0,0,0,4.39,4.39h65.79a4.37,4.37,0,0,0,4.36-4.39V110.69a4.38,4.38,0,0,0-4.36-4.36Zm89.6,0a4.38,4.38,0,0,0-4.4,4.36v65.82a4.37,4.37,0,0,0,4.4,4.39h65.78a4.37,4.37,0,0,0,4.39-4.39V110.69a4.36,4.36,0,0,0-4.39-4.36ZM115.2,115.08h57.07v57.07H115.2Zm89.6,0h57v57.07h-57Zm89.59,0h57.06v57.07H294.39ZM110.81,195.92a4.38,4.38,0,0,0-4.36,4.39V266.1a4.38,4.38,0,0,0,4.36,4.39h65.82A4.38,4.38,0,0,0,181,266.1V200.31a4.38,4.38,0,0,0-4.36-4.39Zm4.4,8.76h57.07v57.06H115.21Zm-4.39,80.83a4.38,4.38,0,0,0-4.36,4.4v65.78a4.38,4.38,0,0,0,4.36,4.4h65.82a4.39,4.39,0,0,0,4.36-4.4V289.91a4.39,4.39,0,0,0-4.36-4.4Zm94.9-89.35a9.63,9.63,0,0,0-9.67,9.66V350.43a9.6,9.6,0,0,0,2.82,6.84,9.7,9.7,0,0,0,6.85,2.82H350.6a9.63,9.63,0,0,0,9.61-9.66V205.82a9.63,9.63,0,0,0-9.61-9.66Zm-90.51,98.1h57.07v57.07H115.21Zm89.6-88.1h146.4V351.32H204.81Z"/><path class="cls-1" d="M222.37,315.29,233.88,304l18.32-18,4.16-4.1H252.6l7.7,7.57,12.36,12.17,2.83,2.79a2.75,2.75,0,0,0,3.76,0l5.86-5.76,14.06-13.84L316.1,268.1l14.7-14.46c2.38-2.34,4.84-4.63,7.15-7l.1-.11a2.64,2.64,0,0,0,0-3.7,2.75,2.75,0,0,0-3.76,0l-5.85,5.76L314.38,262.4l-16.93,16.66-14.7,14.47c-2.36,2.36-4.9,4.61-7.15,7.07l-.11.1h3.76l-7.69-7.57L259.2,281l-2.84-2.8a2.75,2.75,0,0,0-3.76,0L241.1,289.5l-18.32,18-4.17,4.1a2.64,2.64,0,0,0,0,3.7,2.75,2.75,0,0,0,3.76,0Z"/></g></g></svg>