<svg xmlns="http://www.w3.org/2000/svg" viewBox="0 0 460.89 464.63"><defs><style>.cls-1{fill:#fff;}.cls-2{stroke:#000;stroke-miterlimit:10;stroke-width:5px;}</style></defs><g id="Camada_2" data-name="Camada 2"><g id="Layer_1" data-name="Layer 1"><rect x="78" width="382.89" height="382.89" rx="43.08"/><rect class="cls-1" x="91.65" y="13.65" width="353.99" height="353.99" rx="27.09"/><rect x="38" y="42.58" width="382.89" height="382.89" rx="43.08"/><rect class="cls-1" x="51.65" y="56.23" width="353.99" height="353.99" rx="27.09"/><rect y="81.75" width="382.89" height="382.89" rx="43.08"/><rect class="cls-1" x="13.65" y="95.39" width="353.99" height="353.99" rx="27.09"/><path d="M67.43,144.58A4.43,4.43,0,0,0,63,149v66.62a4.43,4.43,0,0,0,4.41,4.45h66.62a4.43,4.43,0,0,0,4.41-4.45V149a4.43,4.43,0,0,0-4.41-4.41Zm90.71,0a4.43,4.43,0,0,0-4.45,4.41v66.62a4.44,4.44,0,0,0,4.45,4.45h66.59a4.44,4.44,0,0,0,4.42-4.45V149a4.43,4.43,0,0,0-4.42-4.41Zm90.69,0a4.43,4.43,0,0,0-4.45,4.41v66.62a4.44,4.44,0,0,0,4.45,4.45h66.58a4.44,4.44,0,0,0,4.45-4.45V149a4.43,4.43,0,0,0-4.45-4.41Zm-177,8.85h57.76V211.2H71.88Zm90.68,0h57.73V211.2H162.56Zm90.68,0H311V211.2H253.24ZM67.44,235.25A4.43,4.43,0,0,0,63,239.7v66.58a4.44,4.44,0,0,0,4.42,4.45h66.62a4.43,4.43,0,0,0,4.41-4.45V239.7a4.43,4.43,0,0,0-4.41-4.45Zm4.44,8.87h57.77v57.76H71.88Zm-4.44,81.82A4.42,4.42,0,0,0,63,330.38V397a4.42,4.42,0,0,0,4.41,4.44h66.62a4.42,4.42,0,0,0,4.41-4.44V330.38a4.42,4.42,0,0,0-4.41-4.44ZM163.5,235.5a9.75,9.75,0,0,0-9.8,9.77V391.64a9.75,9.75,0,0,0,9.8,9.77H310.13a9.75,9.75,0,0,0,9.74-9.77V245.27a9.75,9.75,0,0,0-9.74-9.77ZM71.89,334.79h57.76v57.76H71.89Zm90.68-89.17H310.76V392.54H162.57Z"/><path class="cls-2" d="M178.76,361.84l11.65-11.46L209,332.13l4.22-4.15h-3.81l7.79,7.67L229.66,348l2.87,2.83a2.79,2.79,0,0,0,3.81,0l5.92-5.83,14.23-14,17.14-16.87,14.88-14.64c2.4-2.37,4.9-4.68,7.23-7.12l.11-.1a2.68,2.68,0,0,0,0-3.75,2.77,2.77,0,0,0-3.81,0l-5.92,5.83-14.23,14-17.14,16.86-14.88,14.65c-2.39,2.38-5,4.66-7.23,7.15l-.11.11h3.81l-7.79-7.67L216,327.1l-2.87-2.83a2.79,2.79,0,0,0-3.81,0l-11.65,11.47L179.17,354,175,358.13a2.66,2.66,0,0,0,0,3.75,2.76,2.76,0,0,0,3.8,0Z"/></g></g></svg>