<svg xmlns="http://www.w3.org/2000/svg" viewBox="0 0 466.66 466.66"><defs><style>.cls-1{fill-rule:evenodd;}</style></defs><g id="Camada_2" data-name="Camada 2"><g id="Layer_1" data-name="Layer 1"><path d="M457.33,77.65a9.33,9.33,0,1,0,0-18.66H407.68V9.33a9.34,9.34,0,0,0-18.67,0V59H77.65V9.33A9.33,9.33,0,0,0,59,9.33V59H9.33a9.34,9.34,0,0,0,0,18.67H59V389H9.33a9.34,9.34,0,0,0,0,18.67H59v49.65a9.34,9.34,0,0,0,18.67,0V407.68H389v49.65a9.34,9.34,0,0,0,18.67,0V407.68h49.65a9.33,9.33,0,0,0,0-18.66H407.68V77.66ZM389,389H77.65V77.65H389Z"/><path d="M270.81,162.28c-4.75-5-11.49-9.28-19.64-12.88-16.28-7.19-38.44-11.5-62.93-11.5s-46.65,4.31-62.93,11.5c-8.15,3.6-14.89,7.92-19.64,12.88S98.1,173,98.1,179.1V287.26c0,6.13,2.81,11.86,7.57,16.82s11.49,9.2,19.64,12.8c16.28,7.19,38.44,11.59,62.93,11.59,19.89,0,38.25-2.91,53.17-7.85v-5.41c-14.54,5.05-33,8.11-53.17,8.11-23.88,0-45.44-4.32-60.85-11.11-7.69-3.4-13.83-7.46-17.94-11.75s-6.2-8.65-6.2-13.2V265.21a33.18,33.18,0,0,0,2.42,2.82c4.75,5,11.49,9.2,19.64,12.8,16.28,7.18,38.44,11.58,62.93,11.58,19.89,0,38.25-2.9,53.17-7.84l3.51-6.67a187.39,187.39,0,0,1-56.68,9.36c-23.88,0-45.44-4.31-60.85-11.1-7.69-3.4-13.83-7.47-17.94-11.75s-6.2-8.66-6.2-13.2V229.15a34.93,34.93,0,0,0,2.42,2.83c4.75,5,11.49,9.2,19.64,12.79,16.28,7.19,38.44,11.59,62.93,11.59,19.89,0,60.68-8.46,74.68-15.46l3-6c-12.49,7.23-56.5,17.43-77.68,16.31C164.4,250,142.8,246.9,127.39,240.1c-7.69-3.39-13.83-7.47-17.94-11.75s-6.2-8.65-6.2-13.2V193.1a35.1,35.1,0,0,0,2.42,2.82c4.75,5,11.49,9.2,19.64,12.8,16.28,7.18,38.44,11.58,62.93,11.58s46.65-4.4,62.93-11.58c8.15-3.6,14.89-7.84,19.64-12.8a33,33,0,0,0,2.41-2.82v22.05a15.58,15.58,0,0,1-1.59,6.78h6.75V179.1C278.38,173,275.57,167.24,270.81,162.28Zm-3.78,30c-4.11,4.28-10.25,8.35-17.95,11.75-15.4,6.8-37,11.1-60.84,11.1s-45.44-4.31-60.84-11.1c-7.7-3.4-13.84-7.46-18-11.75s-6.2-8.66-6.2-13.2,2.1-9,6.2-13.28,10.25-8.35,18-11.75c15.4-6.79,37-11,60.84-11h0c23.87,0,45.44,4.23,60.84,11,7.7,3.4,13.84,7.47,17.95,11.75s6.2,8.74,6.2,13.28S271.13,188,267,192.3Z"/><path class="cls-1" d="M366.62,299.37,334,236.64A75.3,75.3,0,0,1,325.61,202V169.42a11,11,0,0,0,4.65-10.81c-.68-5.79-4.94-9.82-10.35-9.82H278.49c-5.62,0-9.87,4.15-10.35,10.09-.33,4.16,1.42,8.74,5.33,10.91v33a75.24,75.24,0,0,1-8.53,34.88l-32.38,61.71a15.59,15.59,0,0,0,.15,14.81,13.71,13.71,0,0,0,12.07,7.36H354.38a13.72,13.72,0,0,0,12.06-7.35,15.58,15.58,0,0,0,.18-14.78Zm-6.49,10.84a6.55,6.55,0,0,1-5.74,3.49H244.77a6.53,6.53,0,0,1-5.76-3.51,7.46,7.46,0,0,1-.08-7.06l32.39-61.7a83.61,83.61,0,0,0,9.46-38.69v-39l-3-.56c-2.48-.47-2.33-3.3-2.3-3.62a2.88,2.88,0,0,1,3-3H319.9a3.11,3.11,0,0,1,3.09,3c.05.49.23,2.92-1.95,3.52l-2.76.74V202a83.45,83.45,0,0,0,9.32,38.4l32.61,62.74a7.44,7.44,0,0,1-.08,7Z"/><path class="cls-1" d="M326.92,241.9c17.1,1.36,20.15,21.85,24,36,3,11,19.38,35.38,9,39-6.21,2.16-110.67,10-120-1-9.09-10.78,13.63-61.38,30-73C273.15,240.61,316.23,241,326.92,241.9Z"/></g></g></svg>