<svg xmlns="http://www.w3.org/2000/svg" viewBox="0 0 477.95 477.19"><g id="Camada_2" data-name="Camada 2"><g id="Layer_1" data-name="Layer 1"><path d="M239,101.67c-30.32,0-57.76,5.35-77.94,14.25-10.08,4.45-18.42,9.81-24.31,16s-9.37,13.25-9.37,20.83V286.64c0,7.59,3.48,14.69,9.37,20.83S151,318.87,161,323.32c20.18,8.9,47.62,14.35,77.94,14.35s57.77-5.45,77.94-14.35c10.08-4.45,18.43-9.7,24.32-15.85s9.36-13.24,9.36-20.83V152.7c0-7.58-3.48-14.69-9.36-20.83s-14.24-11.5-24.32-16c-20.17-8.9-47.62-14.25-77.94-14.25Zm0,6.38c29.56,0,56.27,5.24,75.35,13.65,9.53,4.21,17.14,9.25,22.22,14.55s7.68,10.82,7.68,16.45-2.59,11-7.68,16.34-12.69,10.35-22.22,14.55C295.24,192,268.53,197.35,239,197.35S182.7,192,163.63,183.59c-9.54-4.2-17.14-9.24-22.23-14.55s-7.67-10.71-7.67-16.34,2.59-11.14,7.67-16.45,12.69-10.34,22.23-14.55c19.07-8.41,45.78-13.65,75.34-13.65ZM133.73,170a43.58,43.58,0,0,0,3,3.49c5.89,6.14,14.23,11.39,24.31,15.84,20.17,8.9,47.62,14.35,77.94,14.35s57.77-5.45,77.94-14.35c10.08-4.45,18.43-9.7,24.31-15.84a43.58,43.58,0,0,0,3-3.49v27.31c0,5.62-2.58,11-7.67,16.34S323.85,224,314.32,228.24C295.24,236.66,268.53,242,239,242s-56.27-5.33-75.35-13.75c-9.53-4.2-17.13-9.24-22.22-14.55s-7.67-10.72-7.67-16.34Zm0,44.65a40.09,40.09,0,0,0,3,3.49C142.61,224.32,151,229.57,161,234c20.17,8.9,47.62,14.35,77.94,14.35s57.77-5.45,77.94-14.35c10.08-4.45,18.43-9.7,24.31-15.84a38.43,38.43,0,0,0,3-3.49V242c0,5.63-2.58,11-7.67,16.35s-12.69,10.34-22.22,14.55c-19.08,8.42-45.79,13.75-75.35,13.75s-56.27-5.34-75.35-13.75c-9.53-4.21-17.13-9.25-22.22-14.55s-7.67-10.72-7.67-16.35Zm0,44.65a40.09,40.09,0,0,0,3,3.49C142.61,269,151,274.22,161,278.67,181.2,287.57,208.65,293,239,293s57.77-5.45,77.94-14.35c10.08-4.45,18.43-9.7,24.31-15.84a38.43,38.43,0,0,0,3-3.49v27.3c0,5.63-2.58,11.05-7.67,16.35s-12.69,10.34-22.22,14.55C295.24,326,268.53,331.29,239,331.29S182.7,326,163.62,317.54c-9.53-4.21-17.13-9.24-22.22-14.55s-7.67-10.72-7.67-16.35Z"/><path d="M49.67,382.34a53.78,53.78,0,0,0,37.86-15.48,54.05,54.05,0,0,0,75.73,0,54,54,0,0,0,75.72,0,54,54,0,0,0,75.72,0,54,54,0,0,0,75.72,0,54.06,54.06,0,0,0,80.29-5.07,5.83,5.83,0,0,0-9.13-7.24,42.42,42.42,0,0,1-66.6,0,5.81,5.81,0,0,0-9.12,0,42.42,42.42,0,0,1-66.6,0,5.81,5.81,0,0,0-9.12,0,42.42,42.42,0,0,1-66.6,0,5.82,5.82,0,0,0-9.13,0,42.42,42.42,0,0,1-66.6,0,5.81,5.81,0,0,0-9.12,0,42.43,42.43,0,0,1-66.61,0,6,6,0,0,0-9.12,0,42.42,42.42,0,0,1-66.6,0,5.83,5.83,0,0,0-9.13,7.24,54,54,0,0,0,42.43,20.55Z"/><path d="M256.15,10.64l.2-.14L241.2,0,217.72,16.27h46.56ZM458.91,151.17V431.06a27.09,27.09,0,0,1-27.08,27.09H44.12A27.09,27.09,0,0,1,17,431.06V155.36L0,167.17V434.11a43.08,43.08,0,0,0,43.08,43.08H434.87A43.08,43.08,0,0,0,478,434.11V164.36Z"/><polygon points="0 188.17 17.03 176.36 241.01 21.13 248.02 16.27 256.15 10.64 256.35 10.5 241.2 0 217.72 16.27 17.03 155.36 0 167.17 0 188.17"/><polygon points="477.95 164.36 477.95 185.34 458.91 172.15 241.01 21.13 233.99 16.27 226.04 10.76 241.18 0.26 256.15 10.64 264.28 16.27 458.91 151.17 477.95 164.36"/></g></g></svg>