<svg xmlns="http://www.w3.org/2000/svg" viewBox="0 0 466.66 466.66"><g id="Camada_2" data-name="Camada 2"><g id="Layer_1" data-name="Layer 1"><path d="M457.33,77.65a9.33,9.33,0,1,0,0-18.66H407.68V9.33a9.34,9.34,0,0,0-18.67,0V59H77.65V9.33A9.33,9.33,0,0,0,59,9.33V59H9.33a9.34,9.34,0,0,0,0,18.67H59V389H9.33a9.34,9.34,0,0,0,0,18.67H59v49.65a9.34,9.34,0,0,0,18.67,0V407.68H389v49.65a9.34,9.34,0,0,0,18.67,0V407.68h49.65a9.33,9.33,0,0,0,0-18.66H407.68V77.66ZM389,389H77.65V77.65H389Z"/><path d="M233.33,123.09c-27.73,0-52.83,4.89-71.28,13-9.23,4.07-16.86,9-22.24,14.59s-8.57,12.11-8.57,19V292.27c0,6.94,3.18,13.44,8.57,19.05s13,10.43,22.24,14.5c18.45,8.14,43.55,13.12,71.28,13.12s52.84-5,71.29-13.12c9.22-4.07,16.85-8.88,22.24-14.5s8.57-12.11,8.57-19.05V169.76c0-6.94-3.19-13.44-8.57-19s-13-10.52-22.24-14.59c-18.45-8.14-43.55-13-71.29-13Zm0,5.83c27,0,51.47,4.79,68.92,12.49,8.72,3.85,15.67,8.46,20.32,13.31s7,9.89,7,15-2.36,10.1-7,15S311,194.17,302.25,198c-17.45,7.7-41.88,12.58-68.92,12.58s-51.47-4.89-68.91-12.58c-8.73-3.85-15.68-8.46-20.33-13.31s-7-9.8-7-15,2.37-10.19,7-15,11.6-9.46,20.33-13.31c17.44-7.7,41.87-12.49,68.91-12.49Zm-96.26,56.7a40.14,40.14,0,0,0,2.73,3.19c5.39,5.62,13,10.42,22.25,14.49,18.45,8.14,43.55,13.13,71.28,13.13s52.84-5,71.29-13.13c9.22-4.07,16.85-8.87,22.24-14.49a40.14,40.14,0,0,0,2.73-3.19v25c0,5.14-2.37,10.1-7,15S311,235,302.25,238.86c-17.45,7.69-41.88,12.57-68.92,12.57s-51.47-4.88-68.91-12.57c-8.73-3.85-15.68-8.46-20.33-13.31s-7-9.81-7-15Zm0,40.84a38.16,38.16,0,0,0,2.73,3.19c5.39,5.62,13,10.42,22.25,14.49,18.45,8.14,43.55,13.13,71.28,13.13s52.84-5,71.29-13.13c9.22-4.07,16.85-8.87,22.24-14.49a36.37,36.37,0,0,0,2.73-3.19v25c0,5.15-2.37,10.1-7,14.95s-11.6,9.46-20.32,13.31c-17.45,7.7-41.88,12.58-68.92,12.58s-51.47-4.88-68.91-12.58c-8.73-3.85-15.68-8.45-20.33-13.31s-7-9.8-7-14.95Zm0,40.84a38.16,38.16,0,0,0,2.73,3.19c5.39,5.62,13,10.42,22.25,14.49,18.45,8.14,43.55,13.13,71.28,13.13s52.84-5,71.29-13.13c9.22-4.07,16.85-8.87,22.24-14.49a36.37,36.37,0,0,0,2.73-3.19v25c0,5.15-2.37,10.1-7,15s-11.6,9.46-20.32,13.31c-17.45,7.7-41.88,12.58-68.92,12.58s-51.47-4.88-68.91-12.58c-8.73-3.85-15.68-8.45-20.33-13.31s-7-9.8-7-15Z"/></g></g></svg>