<svg xmlns="http://www.w3.org/2000/svg" viewBox="0 0 466.66 466.66"><g id="Camada_2" data-name="Camada 2"><g id="Layer_1" data-name="Layer 1"><path d="M347.29,119.11A16.93,16.93,0,0,0,330.36,136c0,.1,0,.19,0,.29L289.86,147.6a20.93,20.93,0,0,0-34.65-4.21l-35.51-20h0a16.9,16.9,0,1,0-30.44,5l-14.5,15.92h0a25.21,25.21,0,0,0-28.37.68l-13.12-13.12a16.67,16.67,0,0,0-2.55-20.5,16.93,16.93,0,1,0-12,28.9,16.64,16.64,0,0,0,8.55-2.4L140.41,151a25.24,25.24,0,0,0,1.75,31.57l-8,10a17.19,17.19,0,1,0,6.58,5.31l8-10A25.3,25.3,0,0,0,168.5,190L189,231.08c-13,12.62-17.05,30.48-12.16,54.09h0a21.18,21.18,0,0,0,9.36,38.51c5.61,23.89,24.83,40.91,46.79,40.91s41.17-17,46.79-40.93a21.19,21.19,0,0,0,9.31-38.55,69.83,69.83,0,0,0-.35-34.79l28-20.07a25.39,25.39,0,1,0,26.13-42l5.92-35.43a16.89,16.89,0,0,0-1.51-33.69Zm-228.55,12.7a8.47,8.47,0,1,1,6-2.48A8.44,8.44,0,0,1,118.74,131.81Zm8.47,84.64a8.45,8.45,0,1,1,6-2.47A8.49,8.49,0,0,1,127.21,216.45Zm143.9-71.95a12.7,12.7,0,1,1-9,3.72A12.7,12.7,0,0,1,271.11,144.5Zm-67.72-33.86a8.45,8.45,0,1,1-6,2.48A8.52,8.52,0,0,1,203.39,110.64Zm-42.32,72a16.93,16.93,0,1,1,12-5A17,17,0,0,1,161.07,182.6Zm46.66,45.65c24.5-12.28,42.58-.76,43.33-.27a4.22,4.22,0,0,0,6.2-1.78l1.48-3.28,3,7.2h0a4.25,4.25,0,0,0,4.68,2.54l7.06-1.3-1.22,1.49a4.25,4.25,0,0,0,.19,5.58c9.53,10.15,12.37,24.42,8.77,43.39a20.91,20.91,0,0,0-3.15-.42V272a4.24,4.24,0,0,0-3.38-4.15c-15.24-3-28-18.72-28.11-18.88a4.23,4.23,0,0,0-7.23,1.07C235.07,260.65,208,266.57,192,267.8h0A4.24,4.24,0,0,0,188,272v9.37h0a21.74,21.74,0,0,0-3.2.42c-5-26.17,2.32-43.3,22.89-53.58Zm82.21,74.35a12.84,12.84,0,0,1-13.1,12.75,4.24,4.24,0,0,0-4.65,3.47c-3.84,21.61-20.31,37.3-39.17,37.3s-35.34-15.69-39.15-37.3a4.57,4.57,0,0,0-4.5-3.5,4.41,4.41,0,0,0-.52,0,12.75,12.75,0,0,1,0-25.5,11.61,11.61,0,0,1,2.49.24,4.24,4.24,0,0,0,5.14-4.14V275.87c10.42-1.16,36.72-5.21,47.3-17.29a64.42,64.42,0,0,0,25.77,16.75V286a4.23,4.23,0,0,0,1.58,3.3,4.3,4.3,0,0,0,3.56.85,12.33,12.33,0,0,1,2.5-.25,12.77,12.77,0,0,1,12.75,12.75Zm19.26-90.38a25.14,25.14,0,0,0,2.62,11.16l-26.39,18.93h0a45.25,45.25,0,0,0-4.41-6.86l6.24-7.66a4.23,4.23,0,0,0-4-6.84l-15,2.76-5.38-13.1A4.23,4.23,0,0,0,259,208a4.41,4.41,0,0,0-3.94,2.49l-3.66,8.13a54.3,54.3,0,0,0-47.45,2.08,65.85,65.85,0,0,0-8.21,4.86l-19.68-39.43A25.29,25.29,0,0,0,181,150l14.55-16h0a16.62,16.62,0,0,0,20-3.23l35.47,20a20.67,20.67,0,0,0-1.1,6.43,21.16,21.16,0,1,0,42.32,0c0-.49-.11-1-.15-1.45l40.58-11.28h0a16.92,16.92,0,0,0,7.73,7l-5.9,35.34a25.42,25.42,0,0,0-25.33,25.39Zm42.32,0a16.92,16.92,0,1,1-4.95-12A16.93,16.93,0,0,1,351.52,212.22Zm-4.23-67.72a8.47,8.47,0,1,1,6-2.48A8.44,8.44,0,0,1,347.29,144.5Z"/><path d="M457.33,77.65a9.33,9.33,0,1,0,0-18.66H407.68V9.33a9.34,9.34,0,0,0-18.67,0V59H77.65V9.33A9.33,9.33,0,0,0,59,9.33V59H9.33a9.34,9.34,0,0,0,0,18.67H59V389H9.33a9.34,9.34,0,0,0,0,18.67H59v49.65a9.34,9.34,0,0,0,18.67,0V407.68H389v49.65a9.34,9.34,0,0,0,18.67,0V407.68h49.65a9.33,9.33,0,0,0,0-18.66H407.68V77.66ZM389,389H77.65V77.65H389Z"/></g></g></svg>