<svg xmlns="http://www.w3.org/2000/svg" viewBox="0 0 466.66 466.66"><g id="Camada_2" data-name="Camada 2"><g id="Layer_1" data-name="Layer 1"><path d="M457.33,77.65a9.33,9.33,0,1,0,0-18.66H407.68V9.33a9.34,9.34,0,0,0-18.67,0V59H77.65V9.33A9.33,9.33,0,0,0,59,9.33V59H9.33a9.34,9.34,0,0,0,0,18.67H59V389H9.33a9.34,9.34,0,0,0,0,18.67H59v49.65a9.34,9.34,0,0,0,18.67,0V407.68H389v49.65a9.34,9.34,0,0,0,18.67,0V407.68h49.65a9.33,9.33,0,0,0,0-18.66H407.68V77.66ZM389,389H77.65V77.65H389Z"/><path d="M175.84,155.21a40.7,40.7,0,1,1,55.82,14,40.58,40.58,0,0,1-55.82-14Zm63.52-38a33.3,33.3,0,1,0-11.49,45.67,33.16,33.16,0,0,0,11.49-45.67Z"/><path d="M110.19,142.73a22.2,22.2,0,1,1,30.45,7.66A22.26,22.26,0,0,1,110.19,142.73Zm31.76-19A14.8,14.8,0,1,0,136.84,144,14.84,14.84,0,0,0,142,123.75Z"/><path d="M119.23,240.78a25.9,25.9,0,1,1,35.52,8.94A25.75,25.75,0,0,1,119.23,240.78ZM157.34,218A18.5,18.5,0,1,0,151,243.37,18.31,18.31,0,0,0,157.34,218Z"/><path d="M222.62,269.5a29.6,29.6,0,1,1,40.59,10.22,29.68,29.68,0,0,1-40.59-10.22Zm44.46-26.58a22.2,22.2,0,1,0-7.67,30.45A22.27,22.27,0,0,0,267.08,242.92Z"/><path d="M151.39,211.65a3.24,3.24,0,0,1,.2-4L185.48,162a3.65,3.65,0,0,1,6,4.2l-33.89,45.7a3.68,3.68,0,0,1-5.08.88c-.19-.32-.89-.77-1.08-1.08Z"/><path d="M159.6,234.76a3.39,3.39,0,0,1-.38-2.8,3.58,3.58,0,0,1,4.45-2.65l59.88,15.07a3.66,3.66,0,0,1-1.79,7.1l-59.88-15.07a2.89,2.89,0,0,1-2.28-1.65Z"/><path d="M135.47,207.37a2.23,2.23,0,0,1-.44-1.46l-7-55.73a3.64,3.64,0,0,1,7.23-.87l7,55.72a3.67,3.67,0,0,1-3.18,4.06,3.23,3.23,0,0,1-3.61-1.72Z"/><path d="M112.71,352.45a33.3,33.3,0,1,1,45.67,11.49A33.17,33.17,0,0,1,112.71,352.45Zm50.81-30.38a25.9,25.9,0,1,0-8.94,35.52A25.75,25.75,0,0,0,163.52,322.07Z"/><path d="M138,307.57c-.38-.64-.76-1.27-.63-1.78l.09-56.09A3.74,3.74,0,1,1,145,250l-.09,56.1a3.64,3.64,0,0,1-3.87,3.61,4.7,4.7,0,0,1-3-2.1Z"/><path d="M326.33,317.66,311.65,303l-6.94,6.94,21.62,21.61L368,289.64,361,282.7Z"/><path d="M317.25,211.49l19.21-19,19,19,6.14-6.14L342.6,186.4l18.95-18.94-6.14-6.4-19,18.94-19.21-18.94-6.13,6.4,18.94,18.94-18.94,18.95Z"/></g></g></svg>