<svg xmlns="http://www.w3.org/2000/svg" viewBox="0 0 477.95 477.95"><g id="Camada_2" data-name="Camada 2"><g id="Layer_1" data-name="Layer 1"><path d="M434.87,0H43.08A43.08,43.08,0,0,0,0,43.08V434.87A43.08,43.08,0,0,0,43.08,478H434.87A43.08,43.08,0,0,0,478,434.87V43.08A43.08,43.08,0,0,0,434.87,0Zm24,431.82a27.09,27.09,0,0,1-27.08,27.09H44.12A27.09,27.09,0,0,1,17,431.82V44.12A27.09,27.09,0,0,1,44.12,17H431.83a27.09,27.09,0,0,1,27.08,27.09Z"/><path d="M356,152a20.09,20.09,0,0,0-19.85,17.46h-56.4a43.25,43.25,0,0,0-24.14-36.13l12.4-47c.71.06,1.41.22,2.14.22a27.21,27.21,0,1,0-7.39-1.16l-12.1,45.86a43,43,0,0,0-47,13l-34.62-23.43a28.29,28.29,0,1,0-2.63,4.64l34.06,23.06a43.12,43.12,0,0,0,24.69,65.26l-9.79,32.84a15.18,15.18,0,0,0-2.45-.25,16.09,16.09,0,1,0,7.49,2l10-33.47a41.37,41.37,0,0,0,6.24.51,43.24,43.24,0,0,0,43.09-40.56h56.4A20.08,20.08,0,1,0,356,152Z"/><path d="M251.67,445.56a6.29,6.29,0,0,1-5.77-3.85l-20.78-48.09-11.54,19.62a6.12,6.12,0,0,1-5.38,3.08h-40a6.16,6.16,0,0,1,0-12.31h36.17l16.16-26.93a6.76,6.76,0,0,1,5.77-3.08,5.79,5.79,0,0,1,5.38,3.85l18.47,42.32,18.46-71.94a6.12,6.12,0,0,1,5.77-4.62,5.94,5.94,0,0,1,6.16,3.85l16.93,40.39h25.78a6.16,6.16,0,0,1,0,12.31h-30a5.91,5.91,0,0,1-5.77-3.84L275.91,369l-18.47,71.56a6.13,6.13,0,0,1-5.77,4.61c.38.39,0,.39,0,.39Z"/><rect x="14.33" y="304.56" width="447.42" height="12"/></g></g></svg>