<svg xmlns="http://www.w3.org/2000/svg" viewBox="0 0 460.52 449.81"><g id="Camada_2" data-name="Camada 2"><g id="Layer_1" data-name="Layer 1"><path d="M460.46,106.9a8.4,8.4,0,0,0-1.27-4.54L393.83,2.78A5.74,5.74,0,0,0,389.07,0H71.44a5.74,5.74,0,0,0-4.75,2.78L1.32,102.36a8.34,8.34,0,0,0-1.26,4.55,3.23,3.23,0,0,0-.06.33V442.43c0,4.08,2.72,7.38,6.08,7.38H454.44c3.35,0,6.08-3.3,6.08-7.38V107.24c0-.12-.05-.22-.05-.34ZM236.35,14.75H386.14l55.69,84.83H236.34Zm-162,0h149.8V99.58H18.69Zm374,420.31H12.16V114.61h436.2Z"/><path d="M340.51,271.12a20.08,20.08,0,0,0-19.84,17.46H264.26a43.23,43.23,0,0,0-24.13-36.14l12.39-47c.72.06,1.41.22,2.14.22a27.25,27.25,0,1,0-7.39-1.17l-12.1,45.86a42.95,42.95,0,0,0-47,13l-34.63-23.43a27.84,27.84,0,0,0,2.47-11.41,28.27,28.27,0,1,0-5.1,16.06L185,267.61a43.13,43.13,0,0,0,24.68,65.26l-9.79,32.85a15.18,15.18,0,0,0-2.44-.26,16.12,16.12,0,1,0,7.48,2l10-33.47a42.68,42.68,0,0,0,6.23.51,43.24,43.24,0,0,0,43.09-40.56h56.41a20.07,20.07,0,1,0,19.84-22.79Z"/></g></g></svg>