<svg xmlns="http://www.w3.org/2000/svg" viewBox="0 0 466.66 466.66"><g id="Camada_2" data-name="Camada 2"><g id="Layer_1" data-name="Layer 1"><path d="M227.44,332.56l-23.71-23.71-11.21,11.21L227.44,355l67.23-67.67-11.2-11.21Z"/><path d="M209.44,211.13l31-30.6,30.6,30.6,9.92-9.91-30.61-30.6L281,140l-9.92-10.35-30.6,30.6-31-30.6L199.52,140l30.61,30.6-30.61,30.6Z"/><path d="M457.33,77.65a9.33,9.33,0,1,0,0-18.66H407.68V9.33a9.34,9.34,0,0,0-18.67,0V59H77.65V9.33A9.33,9.33,0,0,0,59,9.33V59H9.33a9.34,9.34,0,0,0,0,18.67H59V389H9.33a9.34,9.34,0,0,0,0,18.67H59v49.65a9.34,9.34,0,0,0,18.67,0V407.68H389v49.65a9.34,9.34,0,0,0,18.67,0V407.68h49.65a9.33,9.33,0,0,0,0-18.66H407.68V77.66ZM389,389H77.65V77.65H389Z"/></g></g></svg>