<?xml version="1.0" encoding="UTF-8"?><svg xmlns="http://www.w3.org/2000/svg" viewBox="0 0 250.74 324.22"><defs><style>.d{fill:#6c63ff;}</style></defs><g id="a"/><g id="b"><g id="c"><path class="d" d="M229.02,66.53H127.98c-7.66,0-13.86-6.2-13.86-13.86s6.2-13.86,13.86-13.86h101.04c7.66,0,13.86,6.21,13.86,13.86s-6.2,13.86-13.86,13.86Z"/><path class="d" d="M114.9,282.77H13.86c-7.66,0-13.86-6.21-13.86-13.86s6.21-13.86,13.86-13.86H114.9c7.65,0,13.86,6.21,13.86,13.86s-6.21,13.86-13.86,13.86Z"/><path class="d" d="M14.81,182.97H236.59c7.92,0,14.14,6.22,14.14,14.14s-6.22,13.58-14.14,13.58H14.81c-7.92,0-13.58-5.66-13.58-13.58s5.66-14.14,13.58-14.14Z"/><path class="d" d="M14.81,110.89H236.59c7.92,0,14.14,5.66,14.14,13.58s-6.22,14.14-14.14,14.14H14.81c-7.92,0-13.58-6.23-13.58-14.14s5.66-13.58,13.58-13.58Z"/><path class="d" d="M169.88,287.24h-1.87c-4.65,0-8.86-1.89-12.64-5.67-3.78-3.78-5.67-8.24-5.67-13.39s1.89-9.75,5.67-13.32c3.78-3.57,8.41-5.36,13.89-5.36,6.23,0,11.31,2.49,15.25,7.47,3.95,4.98,5.91,11.91,5.91,20.8,0,8.14-1.72,15.79-5.17,22.98-3.45,7.18-7.68,12.89-12.7,17.12-5.02,4.23-9.57,6.35-13.64,6.35-2.57,0-4.67-.81-6.29-2.43-1.62-1.62-2.43-3.59-2.43-5.92,0-3.73,1.7-6.47,5.11-8.22,4.4-2.57,7.84-5.39,10.34-8.47,2.49-3.07,3.9-7.05,4.23-11.95h0Z"/><path class="d" d="M224.68,287.24h-1.5c-4.73,0-9.03-1.87-12.89-5.61-3.86-3.73-5.79-8.22-5.79-13.45s1.91-9.65,5.73-13.26c3.82-3.61,8.46-5.42,13.95-5.42,6.31,0,11.42,2.45,15.32,7.35,3.9,4.9,5.85,11.87,5.85,20.92,0,8.38-1.72,16.12-5.17,23.23-3.45,7.1-7.68,12.74-12.7,16.93-5.02,4.2-9.61,6.29-13.76,6.29-2.66,0-4.77-.79-6.35-2.36-1.58-1.58-2.36-3.57-2.36-5.98,0-3.65,1.7-6.39,5.11-8.22,4.73-2.74,8.26-5.58,10.59-8.53,2.32-2.95,3.65-6.91,3.98-11.89h0Z"/><path class="d" d="M20.68,37.24h1.74c4.73,0,8.99,1.8,12.77,5.42,3.78,3.61,5.66,8.11,5.66,13.51s-1.89,9.69-5.66,13.14c-3.78,3.45-8.45,5.17-14.01,5.17-6.06,0-11.1-2.43-15.13-7.29C2.02,62.33,0,55.42,0,46.45,0,38.24,1.77,30.54,5.3,23.35c3.53-7.18,7.85-12.87,12.95-17.06C23.36,2.1,27.9,0,31.89,0c2.66,0,4.73,.79,6.23,2.37,1.5,1.58,2.24,3.61,2.24,6.1,0,3.66-1.62,6.35-4.86,8.1-4.4,2.41-7.89,5.23-10.46,8.47-2.57,3.23-4.02,7.3-4.36,12.2h0Z"/><path class="d" d="M75.72,37.24h1.62c4.65,0,8.86,1.8,12.64,5.42,3.78,3.61,5.66,8.11,5.66,13.51s-1.89,9.63-5.66,13.2c-3.78,3.57-8.45,5.36-14.01,5.36-6.14,0-11.21-2.49-15.2-7.47-3.98-4.98-5.98-11.91-5.98-20.8,0-6.39,1.04-12.41,3.11-18.06,2.07-5.64,4.75-10.56,8.03-14.76,3.28-4.19,6.81-7.51,10.59-9.96,3.78-2.45,7.16-3.68,10.15-3.68,2.74,0,4.84,.77,6.29,2.3s2.18,3.59,2.18,6.16c0,3.74-1.62,6.44-4.86,8.1-4.57,2.57-8.01,5.41-10.34,8.53-2.32,3.12-3.73,7.16-4.23,12.15h0Z"/></g></g></svg>